<?xml version="1.0" standalone="no"?>
<!DOCTYPE svg PUBLIC "-//W3C//DTD SVG 20010904//EN"
 "http://www.w3.org/TR/2001/REC-SVG-20010904/DTD/svg10.dtd">
<svg version="1.0" xmlns="http://www.w3.org/2000/svg"
 width="1296.000000pt" height="430.000000pt" viewBox="0 0 1296.000000 430.000000"
 preserveAspectRatio="xMidYMid meet">
<metadata>
Created by potrace 1.16, written by Peter Selinger 2001-2019
</metadata>
<g transform="translate(0.000000,430.000000) scale(0.100000,-0.100000)"
fill="#000000" stroke="none">
<path d="M12261 4273 c-5 -10 -210 -504 -456 -1098 -246 -594 -449 -1082 -451
-1084 -1 -2 -40 35 -84 83 -431 455 -1112 536 -1641 195 -115 -75 -283 -240
-359 -353 -137 -205 -208 -422 -217 -664 -11 -268 43 -492 169 -707 234 -399
645 -635 1107 -635 206 0 370 35 548 115 149 69 350 221 433 329 19 25 37 45
40 45 3 1 50 -109 105 -244 l100 -245 352 0 352 0 -28 68 c-15 37 -135 325
-265 640 l-238 573 17 42 c9 23 286 693 616 1488 329 796 599 1452 599 1458 0
8 -98 11 -345 11 -318 0 -345 -1 -354 -17z m-1731 -2373 c207 -69 375 -251
424 -460 20 -83 20 -219 1 -295 -28 -110 -90 -221 -169 -300 -126 -127 -270
-188 -446 -189 -184 -1 -323 56 -455 189 -89 88 -141 178 -171 295 -20 78 -22
214 -4 290 18 78 80 206 129 267 79 98 218 185 349 218 82 21 257 13 342 -15z"/>
<path d="M1905 2274 c-186 -30 -334 -121 -428 -264 -105 -161 -116 -409 -25
-592 41 -81 135 -176 215 -217 109 -55 201 -75 348 -75 205 0 341 45 457 152
122 113 181 248 181 417 1 170 -49 301 -155 411 -108 113 -240 164 -438 169
-69 2 -138 1 -155 -1z m288 -148 c103 -49 180 -149 221 -285 20 -67 21 -207 2
-277 -35 -133 -134 -253 -244 -295 -81 -31 -215 -32 -294 0 -177 69 -293 302
-260 517 28 179 139 316 292 359 85 23 210 15 283 -19z"/>
<path d="M8000 2264 c-152 -41 -254 -162 -253 -300 1 -121 61 -199 264 -342
172 -121 208 -167 196 -252 -6 -50 -33 -85 -83 -110 -76 -37 -219 -20 -262 33
-8 9 -20 36 -27 59 -11 39 -15 43 -49 46 -46 4 -53 -13 -58 -134 l-3 -89 53
-18 c30 -9 97 -23 150 -29 160 -18 296 19 385 106 66 64 92 125 92 216 -1 127
-53 198 -245 335 -191 136 -220 169 -220 245 0 84 69 135 177 128 76 -5 112
-28 132 -86 16 -43 38 -56 78 -46 25 7 30 23 39 130 l7 81 -29 11 c-82 34
-249 41 -344 16z"/>
<path d="M24 2246 c-9 -24 0 -69 16 -77 8 -4 29 -13 47 -19 30 -11 32 -14 38
-83 4 -40 5 -235 3 -435 -3 -401 2 -372 -71 -393 -37 -10 -38 -11 -35 -52 l3
-42 160 0 c88 0 246 -1 350 -3 274 -4 360 23 491 154 77 76 130 170 155 274
17 71 17 229 0 300 -45 189 -175 330 -346 375 -84 22 -803 23 -811 1z m729
-136 c100 -38 171 -125 203 -250 20 -78 15 -247 -10 -326 -39 -123 -138 -225
-251 -260 -71 -21 -318 -20 -339 2 -14 14 -16 67 -16 441 l0 426 178 -5 c151
-5 186 -9 235 -28z"/>
<path d="M2854 2246 c-9 -24 0 -69 16 -77 8 -4 28 -14 45 -21 16 -7 32 -24 36
-38 9 -33 9 -797 0 -830 -5 -18 -19 -29 -51 -40 -43 -15 -45 -17 -45 -55 l0
-40 175 0 175 0 3 42 3 41 -50 17 c-37 12 -52 23 -56 38 -2 12 -6 182 -7 377
l-3 355 55 -65 c217 -258 743 -860 751 -860 5 0 23 10 39 22 l30 22 0 491 c0
539 -2 519 61 539 31 10 34 14 34 51 l0 40 -170 0 -170 0 -3 -37 c-3 -36 -1
-39 45 -60 l48 -23 7 -145 c5 -80 7 -228 5 -329 l-2 -184 -267 309 c-147 170
-296 346 -333 392 l-66 82 -150 0 c-120 0 -151 -3 -155 -14z"/>
<path d="M4257 2253 c-13 -12 -7 -62 9 -77 8 -9 23 -16 32 -16 10 0 28 -7 40
-16 l22 -15 0 -428 c0 -463 2 -443 -55 -457 -42 -10 -55 -22 -55 -53 0 -51 5
-53 176 -49 87 2 243 2 346 0 204 -3 265 6 362 55 61 31 164 128 207 195 107
166 119 417 29 607 -36 76 -134 177 -203 210 -100 48 -128 51 -528 51 -207 0
-379 -3 -382 -7z m721 -139 c173 -58 267 -282 217 -517 -31 -148 -106 -251
-218 -303 -60 -28 -67 -29 -222 -29 l-159 0 -13 25 c-10 19 -13 124 -13 439
l0 413 178 -4 c134 -4 190 -10 230 -24z"/>
<path d="M5626 2236 c-10 -40 4 -65 44 -76 68 -18 65 1 65 -460 0 -317 -3
-421 -12 -432 -7 -8 -30 -20 -52 -26 -44 -14 -60 -47 -40 -84 11 -20 16 -21
123 -15 61 4 224 2 361 -3 193 -7 253 -6 262 3 15 16 46 238 35 249 -5 5 -27
8 -48 6 -36 -3 -40 -6 -54 -47 -25 -74 -50 -85 -198 -89 -171 -5 -164 -11
-170 155 -2 72 -1 152 2 177 l7 46 180 0 c203 0 193 -4 194 83 l0 48 -186 -1
c-163 -1 -187 1 -193 15 -3 9 -6 86 -6 170 0 126 3 156 16 169 12 13 37 16
117 15 140 -1 149 -5 166 -62 15 -49 35 -63 75 -53 21 5 23 13 29 105 4 55 5
105 2 113 -4 10 -74 13 -359 14 -350 1 -355 1 -360 -20z"/>
<path d="M6594 2246 c-3 -8 -4 -27 -2 -43 2 -23 10 -30 42 -41 70 -23 66 8 66
-462 0 -466 3 -444 -58 -456 -41 -8 -54 -25 -50 -66 l3 -33 210 0 210 0 3 33
c4 40 -9 58 -47 65 -59 12 -61 20 -61 233 l0 194 51 0 50 0 75 -157 c42 -87
94 -201 116 -253 22 -52 45 -101 51 -107 7 -9 51 -13 158 -13 149 0 149 0 161
24 15 35 5 52 -44 74 -24 11 -55 32 -70 48 -38 41 -128 188 -193 315 l-56 109
26 10 c15 6 30 10 34 10 18 0 103 85 124 124 18 33 22 58 22 131 0 80 -3 95
-27 137 -38 63 -89 103 -157 122 -80 22 -629 24 -637 2z m510 -120 c90 -39
124 -159 73 -257 -32 -60 -88 -87 -187 -91 l-75 -3 -3 175 c-1 96 0 181 3 189
4 11 20 12 82 7 42 -4 90 -13 107 -20z"/>
<path d="M2187 836 c-20 -7 -44 -20 -53 -27 -24 -20 -44 -65 -44 -99 0 -71 40
-114 163 -176 45 -22 67 -49 67 -82 0 -76 -96 -104 -183 -53 -27 15 -29 15
-43 -3 -8 -11 -14 -26 -14 -33 0 -23 80 -53 143 -53 106 0 167 44 175 128 8
83 -28 127 -154 190 -64 32 -74 45 -74 92 0 55 71 77 147 45 36 -15 38 -15 54
7 20 26 18 33 -20 53 -43 22 -120 27 -164 11z"/>
<path d="M125 827 c-3 -7 -4 -125 -3 -262 l3 -250 38 -3 37 -3 0 265 0 266
-35 0 c-20 0 -38 -6 -40 -13z"/>
<path d="M952 578 l3 -263 33 -3 32 -3 0 207 0 207 58 -84 c226 -333 224 -330
257 -327 l30 3 3 263 2 262 -35 0 -35 0 0 -197 c-1 -158 -3 -195 -13 -181 -7
9 -68 98 -137 197 -124 180 -125 181 -163 181 l-37 0 2 -262z"/>
<path d="M3050 805 l0 -35 75 0 75 0 0 -231 0 -230 38 3 37 3 3 228 2 227 70
0 70 0 0 35 0 35 -185 0 -185 0 0 -35z"/>
<path d="M4112 578 l3 -263 35 0 35 0 3 263 2 262 -40 0 -40 0 2 -262z"/>
<path d="M4880 805 l0 -35 75 0 75 0 0 -231 0 -230 38 3 37 3 3 228 2 227 70
0 70 0 0 35 0 35 -185 0 -185 0 0 -35z"/>
<path d="M5930 663 c0 -99 5 -196 11 -218 25 -91 88 -134 196 -135 99 0 149
28 184 105 16 34 19 67 19 233 l0 192 -35 0 -35 0 0 -180 c0 -197 -8 -235 -54
-265 -34 -23 -118 -23 -152 0 -46 30 -54 68 -54 265 l0 180 -40 0 -40 0 0
-177z"/>
<path d="M7030 805 l0 -35 70 0 70 0 2 -227 3 -228 35 0 35 0 3 227 2 227 73
3 72 3 0 30 0 30 -182 3 -183 2 0 -35z"/>
<path d="M8062 578 l3 -263 138 -3 137 -3 0 36 0 35 -100 0 -100 0 0 90 0 90
85 0 85 0 0 30 0 30 -85 0 -85 0 0 75 0 75 100 0 100 0 0 35 0 35 -140 0 -140
0 2 -262z"/>
</g>
</svg>
